PathFileType	4	(x/y/z)	S04_P20_T18.trc
DataRate	CameraRate	NumFrames	NumMarkers	Units	OrigDataRate	OrigDataStartFrame	OrigNumFrames
240	240	10	51	mm	240	137	363
Frame#	Time	Sternum			R.Acromium			L.Acromium			Top.Head			R.ASIS			L.ASIS			R.PSIS			L.PSIS			R.Great.Tro			L.Great.Tro			R.Iliac.Crest			L.Iliac.Crest			V.Sacral			R.Thigh.Upper.Post			R.Thigh.Lower.Ant			R.Thigh.Lower.Post			R.Thigh.Upper.Ant			R.Knee.Lat			R.Knee.Med			R.Shank.Upper.Post			R.Shank.Lower.Ant			R.Shank.Lower.Post			R.Shank.Upper.Ant			R.Ankle.Lat			R.Ankle.Med			R.Heel.Upper			R.Heel.Med			R.Heel.Lat			R.Toe.Lat			R.Toe.Med			R.Toe.Tip			L.Thigh.Upper.Post			L.Thigh.Lower.Ant			L.Thigh.Lower.Post			L.Thigh.Upper.Ant			L.Knee.Lat			L.Knee.Med			L.Shank.Upper.Post			L.Shank.Lower.Ant			L.Shank.Lower.Post			L.Shank.Upper.Ant			L.Ankle.Lat			L.Ankle.Med			L.Heel.Upper			L.Heel.Med			L.Heel.Lat			L.Toe.Lat			L.Toe.Med			L.Toe.Tip			Cervical.Spine			Back			
		X1	Y1	Z1	X2	Y2	Z2	X3	Y3	Z3	X4	Y4	Z4	X5	Y5	Z5	X6	Y6	Z6	X7	Y7	Z7	X8	Y8	Z8	X9	Y9	Z9	X10	Y10	Z10	X11	Y11	Z11	X12	Y12	Z12	X13	Y13	Z13	X14	Y14	Z14	X15	Y15	Z15	X16	Y16	Z16	X17	Y17	Z17	X18	Y18	Z18	X19	Y19	Z19	X20	Y20	Z20	X21	Y21	Z21	X22	Y22	Z22	X23	Y23	Z23	X24	Y24	Z24	X25	Y25	Z25	X26	Y26	Z26	X27	Y27	Z27	X28	Y28	Z28	X29	Y29	Z29	X30	Y30	Z30	X31	Y31	Z31	X32	Y32	Z32	X33	Y33	Z33	X34	Y34	Z34	X35	Y35	Z35	X36	Y36	Z36	X37	Y37	Z37	X38	Y38	Z38	X39	Y39	Z39	X40	Y40	Z40	X41	Y41	Z41	X42	Y42	Z42	X43	Y43	Z43	X44	Y44	Z44	X45	Y45	Z45	X46	Y46	Z46	X47	Y47	Z47	X48	Y48	Z48	X49	Y49	Z49	X50	Y50	Z50	X51	Y51	Z51	

137	0.56667	-580.67	1259.4	278.73	-721.51	1486.2	445.39	-697.59	1473.9	94.829	-684.69	1814.6	257.19	-614.36	986.71	397.65	-626.07	991.39	150.67	-833.66	1010.6	311.98	-826.6	1013.8	230.44	-688.87	905.55	467.95	-751.95	906.89	90.559	-705.5	1069.3	445.05	-719.88	1075.5	108.16	-849.71	969.7	271.7	-621.32	653.9	453.45	-527.78	597.64	412.62	-595.66	567.77	436.82	-549.55	704.06	436.75	-549.07	513.84	426.1	-585.5	497.73	296.99	-572.19	276.32	427.87	-493.78	214.72	381.25	-558.37	208.08	413.62	-509.72	282.76	404.64	-524.87	99.314	392.14	-508.56	117.46	302.37	-582.14	66.347	334.58	-568.14	38.502	303.39	-574.21	33.536	367.78	-405.87	52.431	415.89	-371.35	65.999	300.98	-313.57	96.517	348.7	-793.02	677.2	105.97	-723.36	572.5	102.61	-793.19	587.84	114.95	-727.7	662.46	91.643	-777.08	489.75	112.57	-762.78	470.66	236.79	-949.51	390.38	123.18	-941.66	280.14	118.02	-987.76	323.55	129.74	-902.07	346.57	110.72	-1047.9	163.21	141.78	-1035	174.21	232.83	-1127.5	177.48	188.53	-1133.6	156.09	224.23	-1139.3	150.9	162.85	-991.19	50.065	127.94	-957.41	48.704	243.27	-906.27	40.813	196.19	-759.86	1535.3	269.66	-839.12	1278.6	242.45
138	0.57083	-575.03	1259.6	279.15	-715.82	1486.2	446.2	-692.91	1474	95.568	-679.55	1814.7	257.75	-608.36	986.91	398.25	-620.25	991.37	151.28	-827.83	1010.5	312.51	-820.76	1013.6	230.97	-682.91	905.8	468.58	-745.74	906.34	91.186	-699.27	1069.4	445.67	-714.23	1075.4	108.75	-843.85	969.54	272.33	-615.61	654.12	454.05	-522.25	597.62	413.06	-590.15	567.92	437.46	-543.74	704.12	437.13	-543.84	513.63	426.51	-580.72	497.73	297.62	-568.86	276.25	428.41	-491.24	213.91	381.38	-555.74	207.88	414.08	-506.44	282.09	404.84	-523.6	98.882	392.38	-507.1	116.95	302.61	-581.47	66.824	334.83	-567.92	38.86	303.55	-573.97	33.81	367.93	-405.22	50.526	415.92	-370.59	63.839	300.95	-312.25	93.364	348.66	-784.48	675.85	106.09	-713.78	571.88	102.01	-783.69	586.48	114.81	-719.05	661.83	91.386	-766.68	488.92	112.05	-751.6	469.27	236.29	-940.27	392.43	123.26	-934.32	282.09	117.67	-979.63	326.2	129.74	-893.57	347.91	110.49	-1042.2	166.95	141.37	-1028.8	177.73	232.38	-1121.1	184.09	188.38	-1127.8	163.2	224.3	-1133.9	157.89	162.87	-989.7	51.805	127.95	-955.62	49.884	243.13	-905.38	40.476	196.06	-754.63	1535.3	270.58	-833.56	1278.4	243.51
139	0.575	-569.41	1259.9	279.53	-710.09	1486.2	446.99	-688.22	1474.1	96.295	-674.42	1814.9	258.32	-602.44	987.15	398.84	-614.49	991.37	151.89	-822.05	1010.5	313.01	-814.96	1013.4	231.46	-677.03	906.12	469.21	-739.55	905.8	91.812	-693.13	1069.5	446.27	-708.62	1075.3	109.32	-838.05	969.42	272.93	-609.97	654.38	454.68	-516.78	597.64	413.56	-584.71	568.12	438.12	-538.02	704.22	437.58	-538.68	513.47	426.96	-575.9	497.8	298.26	-565.61	276.23	428.98	-488.78	213.16	381.53	-553.2	207.74	414.55	-503.26	281.48	405.07	-522.41	98.512	392.62	-505.72	116.52	302.88	-580.87	67.278	335.07	-567.72	39.217	303.71	-573.74	34.075	368.07	-404.64	48.78	415.99	-369.89	61.844	300.96	-311.04	90.409	348.67	-775.86	674.53	106.2	-704.09	571.31	101.41	-774.09	585.15	114.67	-710.32	661.24	91.109	-756.1	488.13	111.53	-740.26	467.96	235.83	-930.73	394.52	123.32	-926.69	284.11	117.34	-971.2	328.91	129.75	-884.8	349.29	110.28	-1036.2	170.84	140.97	-1022.4	181.37	231.94	-1114.3	190.85	188.24	-1121.7	170.48	224.37	-1128.2	165.07	162.9	-988.01	53.769	127.95	-953.61	51.246	242.96	-904.31	40.167	195.87	-749.39	1535.3	271.5	-828.02	1278.3	244.55
140	0.57917	-563.81	1260.2	279.87	-704.33	1486.2	447.77	-683.51	1474.3	97.007	-669.31	1815	258.88	-596.58	987.44	399.44	-608.78	991.38	152.5	-816.33	1010.6	313.46	-809.21	1013.2	231.91	-671.25	906.5	469.83	-733.39	905.26	92.436	-687.06	1069.7	446.85	-703.05	1075.2	109.88	-832.3	969.35	273.51	-604.43	654.67	455.33	-511.39	597.7	414.12	-579.37	568.34	438.8	-532.38	704.35	438.11	-533.61	513.33	427.45	-571.06	497.94	298.91	-562.44	276.26	429.57	-486.41	212.48	381.7	-550.74	207.64	415.02	-500.16	280.92	405.32	-521.3	98.201	392.86	-504.41	116.16	303.15	-580.32	67.703	335.31	-567.52	39.567	303.87	-573.54	34.329	368.21	-404.12	47.196	416.09	-369.24	60.011	300.99	-309.93	87.657	348.71	-767.18	673.22	106.29	-694.31	570.8	100.82	-764.4	583.85	114.52	-701.54	660.69	90.817	-745.35	487.4	111.02	-728.77	466.74	235.41	-920.92	396.65	123.36	-918.76	286.19	117.05	-962.48	331.68	129.74	-875.78	350.72	110.1	-1030	174.87	140.59	-1015.6	185.1	231.52	-1107.1	197.74	188.1	-1115.3	177.89	224.44	-1122.1	172.41	162.93	-986.08	55.964	127.93	-951.34	52.799	242.76	-903.02	39.898	195.61	-744.15	1535.3	272.41	-822.51	1278.2	245.57
141	0.58333	-558.24	1260.5	280.18	-698.55	1486.3	448.53	-678.8	1474.5	97.704	-664.21	1815.2	259.45	-590.81	987.76	400.04	-603.12	991.4	153.1	-810.66	1010.7	313.88	-803.52	1013	232.33	-665.55	906.94	470.45	-727.25	904.73	93.055	-681.09	1069.9	447.4	-697.51	1075.2	110.43	-826.62	969.33	274.05	-599	654.98	456	-506.1	597.78	414.72	-574.13	568.59	439.48	-526.84	704.49	438.71	-528.64	513.23	427.96	-566.23	498.13	299.57	-559.37	276.32	430.15	-484.14	211.86	381.88	-548.37	207.6	415.49	-497.16	280.4	405.57	-520.28	97.946	393.08	-503.17	115.86	303.42	-579.82	68.098	335.53	-567.34	39.902	304.03	-573.34	34.571	368.34	-403.65	45.775	416.23	-368.65	58.334	301.02	-308.92	85.11	348.75	-758.45	671.96	106.37	-684.45	570.37	100.24	-754.64	582.61	114.39	-692.7	660.2	90.514	-734.46	486.73	110.52	-717.17	465.64	235.04	-910.86	398.82	123.39	-910.55	288.34	116.78	-953.49	334.49	129.74	-866.5	352.21	109.95	-1023.5	179.04	140.23	-1008.6	188.92	231.12	-1099.6	204.71	187.98	-1108.4	185.39	224.53	-1115.5	179.86	162.96	-983.89	58.396	127.89	-948.78	54.55	242.52	-901.47	39.686	195.28	-738.89	1535.4	273.3	-817.01	1278.2	246.57
142	0.5875	-552.7	1260.8	280.45	-692.74	1486.4	449.26	-674.07	1474.7	98.383	-659.13	1815.5	260.02	-585.1	988.13	400.64	-597.53	991.44	153.69	-805.05	1010.9	314.27	-797.88	1012.9	232.71	-659.93	907.42	471.06	-721.14	904.22	93.667	-675.2	1070.2	447.93	-692.02	1075.2	110.97	-820.99	969.35	274.57	-593.68	655.3	456.67	-500.92	597.88	415.37	-569.01	568.85	440.16	-521.39	704.64	439.36	-523.78	513.15	428.48	-561.41	498.36	300.21	-556.4	276.41	430.72	-481.97	211.3	382.06	-546.1	207.6	415.94	-494.26	279.91	405.83	-519.34	97.743	393.29	-502.02	115.61	303.67	-579.38	68.461	335.74	-567.17	40.219	304.17	-573.16	34.8	368.47	-403.25	44.515	416.38	-368.11	56.807	301.06	-308.02	82.765	348.8	-749.68	670.75	106.46	-674.53	570.01	99.677	-744.81	581.43	114.27	-683.84	659.77	90.206	-723.45	486.15	110.04	-705.48	464.67	234.74	-900.56	401.03	123.41	-902.06	290.55	116.56	-944.25	337.36	129.74	-857.01	353.74	109.83	-1016.8	183.33	139.89	-1001.3	192.81	230.75	-1091.7	211.73	187.89	-1101.2	192.93	224.64	-1108.7	187.38	163.02	-981.4	61.065	127.83	-945.9	56.498	242.23	-899.64	39.55	194.87	-733.62	1535.6	274.19	-811.54	1278.2	247.55
143	0.59167	-547.19	1261.1	280.68	-686.91	1486.6	449.98	-669.33	1475	99.045	-654.05	1815.7	260.59	-579.46	988.53	401.23	-591.99	991.49	154.27	-799.49	1011.1	314.63	-792.29	1012.8	233.07	-654.4	907.94	471.65	-715.07	903.74	94.27	-669.4	1070.5	448.44	-686.57	1075.2	111.49	-815.43	969.42	275.06	-588.48	655.63	457.32	-495.85	597.97	416.04	-564.02	569.12	440.82	-516.06	704.78	440.06	-519.04	513.08	429	-556.65	498.62	300.83	-553.53	276.53	431.28	-479.89	210.78	382.22	-543.92	207.63	416.37	-491.46	279.47	406.08	-518.47	97.588	393.47	-500.95	115.41	303.91	-578.99	68.792	335.92	-567.02	40.513	304.31	-572.99	35.015	368.59	-402.89	43.409	416.55	-367.62	55.42	301.1	-307.21	80.618	348.85	-740.88	669.6	106.55	-664.57	569.76	99.14	-734.94	580.33	114.19	-674.96	659.41	89.9	-712.34	485.66	109.59	-693.73	463.85	234.49	-890.05	403.29	123.42	-893.32	292.83	116.38	-934.78	340.27	129.74	-847.3	355.34	109.75	-1009.8	187.73	139.59	-993.78	196.78	230.41	-1083.5	218.76	187.83	-1093.7	200.45	224.77	-1101.5	194.91	163.11	-978.59	63.967	127.74	-942.66	58.639	241.9	-897.47	39.508	194.37	-728.34	1535.7	275.06	-806.11	1278.3	248.5
144	0.59583	-541.71	1261.5	280.87	-681.05	1486.7	450.67	-664.58	1475.4	99.687	-648.99	1816	261.16	-573.89	988.96	401.82	-586.51	991.57	154.84	-793.97	1011.4	314.96	-786.75	1012.8	233.41	-648.94	908.49	472.23	-709.03	903.28	94.862	-663.67	1070.8	448.93	-681.17	1075.2	112	-809.92	969.54	275.53	-583.41	655.94	457.96	-490.91	598.05	416.74	-559.18	569.37	441.46	-510.83	704.9	440.79	-514.43	513.02	429.53	-551.95	498.91	301.41	-550.76	276.67	431.8	-477.91	210.3	382.36	-541.83	207.69	416.76	-488.76	279.05	406.31	-517.68	97.478	393.62	-499.95	115.25	304.11	-578.65	69.089	336.09	-566.87	40.782	304.43	-572.84	35.217	368.7	-402.58	42.45	416.72	-367.17	54.164	301.12	-306.49	78.662	348.88	-732.07	668.52	106.67	-654.58	569.6	98.633	-725.03	579.32	114.14	-666.07	659.14	89.601	-701.14	485.28	109.17	-681.95	463.19	234.31	-879.36	405.59	123.44	-884.33	295.16	116.25	-925.1	343.23	129.76	-837.41	356.99	109.7	-1002.6	192.21	139.33	-985.98	200.79	230.11	-1075.1	225.74	187.83	-1085.8	207.9	224.93	-1094	202.42	163.24	-975.41	67.091	127.62	-939.04	60.963	241.52	-894.94	39.582	193.78	-723.05	1536	275.91	-800.7	1278.4	249.42
145	0.6	-536.25	1261.8	281.03	-675.17	1486.9	451.34	-659.82	1475.8	100.31	-643.94	1816.4	261.72	-568.37	989.41	402.4	-581.09	991.67	155.41	-788.51	1011.7	315.28	-781.27	1012.8	233.72	-643.54	909.05	472.79	-703.04	902.87	95.439	-658.01	1071.2	449.39	-675.81	1075.3	112.5	-804.46	969.69	275.99	-578.47	656.25	458.58	-486.1	598.11	417.45	-554.48	569.61	442.05	-505.71	704.99	441.55	-509.95	512.97	430.04	-547.34	499.21	301.96	-548.11	276.82	432.28	-476.02	209.86	382.49	-539.85	207.77	417.12	-486.18	278.66	406.53	-516.96	97.409	393.75	-499.04	115.11	304.29	-578.35	69.355	336.24	-566.74	41.025	304.54	-572.69	35.407	368.8	-402.32	41.629	416.9	-366.78	53.029	301.13	-305.86	76.888	348.9	-723.25	667.54	106.8	-644.58	569.56	98.162	-715.1	578.42	114.14	-657.19	658.96	89.315	-689.9	485.03	108.78	-670.15	462.71	234.19	-868.52	407.93	123.47	-875.12	297.56	116.17	-915.24	346.23	129.81	-827.35	358.7	109.69	-995.09	196.75	139.12	-977.95	204.84	229.86	-1066.4	232.63	187.88	-1077.6	215.23	225.14	-1086.1	209.85	163.42	-971.84	70.424	127.48	-935	63.454	241.08	-891.99	39.795	193.1	-717.76	1536.2	276.75	-795.32	1278.6	250.33
146	0.60417	-530.83	1262.2	281.16	-669.27	1487.2	451.99	-655.06	1476.3	100.91	-638.89	1816.7	262.29	-562.92	989.89	402.98	-575.73	991.81	155.96	-783.09	1012	315.58	-775.84	1012.9	234.03	-638.21	909.63	473.32	-697.09	902.52	96.001	-652.43	1071.6	449.83	-670.5	1075.4	112.99	-799.06	969.89	276.43	-573.67	656.54	459.15	-481.43	598.13	418.16	-549.93	569.83	442.61	-500.71	705.04	442.31	-505.62	512.92	430.53	-542.85	499.52	302.46	-545.58	276.98	432.71	-474.24	209.45	382.59	-537.97	207.87	417.43	-483.71	278.3	406.73	-516.31	97.375	393.84	-498.21	115.01	304.43	-578.08	69.589	336.36	-566.62	41.24	304.64	-572.56	35.585	368.89	-402.09	40.934	417.07	-366.43	52.006	301.13	-305.31	75.285	348.91	-714.43	666.65	106.96	-634.57	569.64	97.73	-705.16	577.62	114.18	-648.32	658.88	89.047	-678.61	484.92	108.42	-658.36	462.41	234.13	-857.55	410.31	123.51	-865.71	300.01	116.14	-905.2	349.26	129.87	-817.15	360.48	109.71	-987.38	201.34	138.95	-969.69	208.89	229.67	-1057.4	239.39	188	-1069.1	222.37	225.39	-1078	217.13	163.66	-967.83	73.945	127.3	-930.51	66.093	240.58	-888.6	40.168	192.31	-712.45	1536.5	277.57	-789.97	1278.9	251.21
